<svg width="303" height="303" viewBox="0 0 303 303" fill="none" xmlns="http://www.w3.org/2000/svg">
<path d="M106.066 106.066C86.5398 125.592 54.8816 125.592 35.3554 106.066V106.066C15.8291 86.5397 15.8291 54.8815 35.3554 35.3552V35.3552C54.8816 15.829 86.5398 15.829 106.066 35.3552V35.3552C125.592 54.8815 125.592 86.5397 106.066 106.066V106.066Z" fill="black"/>
<path d="M267.286 267.286C247.76 286.812 216.102 286.812 196.576 267.286V267.286C177.049 247.76 177.049 216.102 196.576 196.576V196.576C216.102 177.049 247.76 177.049 267.286 196.576V196.576C286.813 216.102 286.813 247.76 267.286 267.286V267.286Z" fill="black"/>
<path fill-rule="evenodd" clip-rule="evenodd" d="M181.957 230.04L211.425 259.508L260.922 210.011L232.851 181.94C204.215 181.726 175.645 170.695 153.796 148.846C131.947 126.997 120.915 98.4264 120.702 69.7903L92.631 41.7193L43.1335 91.2168L72.6014 120.685C100.313 121.56 127.765 132.573 148.917 153.725C170.069 174.877 181.082 202.328 181.957 230.04Z" fill="black"/>
<circle cx="70.3209" cy="232.321" r="50" fill="black"/>
<circle cx="232.321" cy="70.3209" r="50" fill="black"/>
</svg>
