<svg width="1116" height="235" viewBox="0 0 1116 235" fill="none" xmlns="http://www.w3.org/2000/svg">
<path d="M305.826 186V82.9091H333.076V101.098H334.284C336.431 95.0572 340.011 90.2919 345.022 86.8018C350.034 83.3118 356.029 81.5668 363.01 81.5668C370.079 81.5668 376.097 83.3342 381.064 86.869C386.03 90.359 389.342 95.1019 390.997 101.098H392.071C394.174 95.1914 397.977 90.4709 403.481 86.9361C409.029 83.3565 415.584 81.5668 423.146 81.5668C432.766 81.5668 440.574 84.6317 446.57 90.7617C452.61 96.8469 455.63 105.483 455.63 116.669V186H427.106V122.306C427.106 116.579 425.584 112.284 422.542 109.42C419.499 106.556 415.696 105.125 411.132 105.125C405.942 105.125 401.892 106.78 398.984 110.091C396.076 113.358 394.621 117.675 394.621 123.045V186H366.902V121.702C366.902 116.646 365.448 112.619 362.54 109.621C359.676 106.624 355.895 105.125 351.197 105.125C348.02 105.125 345.157 105.93 342.606 107.541C340.1 109.107 338.109 111.322 336.633 114.185C335.156 117.004 334.418 120.315 334.418 124.119V186H305.826ZM524.794 188.013C514.234 188.013 505.151 185.776 497.545 181.302C489.983 176.783 484.166 170.518 480.094 162.509C476.067 154.5 474.054 145.283 474.054 134.857C474.054 124.298 476.09 115.036 480.161 107.071C484.278 99.0618 490.117 92.82 497.679 88.3455C505.241 83.8263 514.234 81.5668 524.66 81.5668C533.653 81.5668 541.528 83.1999 548.285 86.4663C555.041 89.7326 560.388 94.3189 564.325 100.225C568.263 106.131 570.433 113.067 570.836 121.031H543.855C543.094 115.886 541.081 111.747 537.814 108.615C534.593 105.438 530.364 103.849 525.129 103.849C520.7 103.849 516.829 105.058 513.518 107.474C510.252 109.845 507.701 113.313 505.867 117.877C504.032 122.441 503.115 127.967 503.115 134.455C503.115 141.032 504.01 146.625 505.8 151.234C507.634 155.842 510.207 159.355 513.518 161.771C516.829 164.187 520.7 165.395 525.129 165.395C528.396 165.395 531.326 164.724 533.922 163.382C536.562 162.039 538.732 160.093 540.432 157.543C542.177 154.947 543.318 151.838 543.855 148.213H570.836C570.388 156.088 568.241 163.024 564.393 169.02C560.589 174.971 555.332 179.624 548.62 182.98C541.909 186.336 533.966 188.013 524.794 188.013ZM589.142 224.659V82.9091H617.331V100.225H618.606C619.859 97.451 621.671 94.6321 624.042 91.7685C626.458 88.8601 629.591 86.4439 633.439 84.5199C637.331 82.5511 642.164 81.5668 647.936 81.5668C655.453 81.5668 662.388 83.5355 668.742 87.473C675.096 91.3658 680.174 97.2496 683.977 105.125C687.781 112.955 689.682 122.776 689.682 134.589C689.682 146.088 687.825 155.798 684.112 163.717C680.443 171.592 675.431 177.566 669.077 181.637C662.769 185.664 655.699 187.678 647.869 187.678C642.32 187.678 637.6 186.761 633.707 184.926C629.859 183.092 626.705 180.787 624.244 178.013C621.783 175.194 619.903 172.353 618.606 169.489H617.733V224.659H589.142ZM617.129 134.455C617.129 140.585 617.979 145.931 619.68 150.495C621.38 155.059 623.841 158.616 627.063 161.167C630.284 163.673 634.199 164.925 638.808 164.925C643.461 164.925 647.399 163.65 650.62 161.1C653.842 158.505 656.281 154.925 657.936 150.361C659.636 145.752 660.487 140.45 660.487 134.455C660.487 128.504 659.659 123.268 658.003 118.749C656.348 114.23 653.909 110.695 650.688 108.145C647.466 105.594 643.506 104.319 638.808 104.319C634.155 104.319 630.217 105.55 626.995 108.011C623.819 110.472 621.38 113.962 619.68 118.481C617.979 123 617.129 128.325 617.129 134.455ZM772.974 118.212V140.898H710.287V118.212H772.974ZM863.447 142.106V82.9091H892.038V186H864.588V167.275H863.514C861.187 173.315 857.317 178.17 851.903 181.839C846.533 185.508 839.978 187.342 832.238 187.342C825.347 187.342 819.284 185.776 814.049 182.644C808.814 179.512 804.72 175.06 801.767 169.288C798.858 163.516 797.382 156.603 797.337 148.549V82.9091H825.929V143.448C825.973 149.533 827.607 154.343 830.828 157.878C834.05 161.413 838.368 163.18 843.782 163.18C847.227 163.18 850.449 162.397 853.446 160.831C856.444 159.221 858.86 156.849 860.695 153.717C862.574 150.585 863.492 146.714 863.447 142.106ZM1000.68 112.306L974.508 113.917C974.06 111.68 973.098 109.666 971.622 107.876C970.145 106.042 968.199 104.588 965.783 103.514C963.411 102.395 960.57 101.836 957.259 101.836C952.829 101.836 949.093 102.776 946.05 104.655C943.008 106.489 941.486 108.95 941.486 112.038C941.486 114.499 942.471 116.579 944.44 118.279C946.408 119.98 949.787 121.344 954.574 122.374L973.233 126.132C983.255 128.19 990.728 131.501 995.649 136.065C1000.57 140.629 1003.03 146.625 1003.03 154.053C1003.03 160.809 1001.04 166.738 997.059 171.838C993.121 176.939 987.707 180.922 980.817 183.785C973.971 186.604 966.073 188.013 957.125 188.013C943.478 188.013 932.605 185.172 924.506 179.49C916.452 173.762 911.731 165.977 910.344 156.133L938.466 154.657C939.316 158.818 941.375 161.995 944.641 164.187C947.907 166.335 952.091 167.409 957.192 167.409C962.203 167.409 966.23 166.447 969.273 164.523C972.36 162.554 973.926 160.026 973.971 156.939C973.926 154.343 972.83 152.218 970.682 150.562C968.534 148.862 965.223 147.565 960.749 146.67L942.896 143.113C932.828 141.099 925.334 137.609 920.412 132.642C915.535 127.676 913.096 121.344 913.096 113.648C913.096 107.026 914.886 101.321 918.466 96.5337C922.09 91.7461 927.168 88.0547 933.701 85.4595C940.278 82.8643 947.974 81.5668 956.789 81.5668C969.81 81.5668 980.056 84.3185 987.528 89.8221C995.045 95.3256 999.43 102.82 1000.68 112.306ZM1068.02 188.013C1057.41 188.013 1048.29 185.866 1040.63 181.57C1033.03 177.23 1027.17 171.1 1023.05 163.18C1018.93 155.216 1016.88 145.797 1016.88 134.924C1016.88 124.32 1018.93 115.013 1023.05 107.004C1027.17 98.9947 1032.96 92.7528 1040.43 88.2784C1047.95 83.804 1056.76 81.5668 1066.88 81.5668C1073.68 81.5668 1080.01 82.663 1085.87 84.8555C1091.78 87.0032 1096.92 90.2472 1101.31 94.5874C1105.74 98.9276 1109.18 104.386 1111.64 110.964C1114.1 117.496 1115.33 125.148 1115.33 133.918V141.77H1028.28V124.051H1088.42C1088.42 119.935 1087.53 116.288 1085.74 113.112C1083.95 109.935 1081.46 107.451 1078.29 105.662C1075.15 103.827 1071.51 102.91 1067.35 102.91C1063.01 102.91 1059.16 103.917 1055.8 105.93C1052.49 107.899 1049.9 110.561 1048.02 113.917C1046.14 117.228 1045.18 120.919 1045.13 124.991V141.837C1045.13 146.938 1046.07 151.346 1047.95 155.059C1049.87 158.773 1052.58 161.637 1056.07 163.65C1059.56 165.664 1063.7 166.67 1068.49 166.67C1071.66 166.67 1074.57 166.223 1077.21 165.328C1079.85 164.433 1082.11 163.091 1083.99 161.301C1085.87 159.511 1087.3 157.319 1088.29 154.724L1114.73 156.469C1113.39 162.822 1110.64 168.371 1106.48 173.114C1102.36 177.812 1097.03 181.481 1090.5 184.121C1084.01 186.716 1076.52 188.013 1068.02 188.013Z" fill="black"/>
<path d="M82.4838 82.2359C67.3218 97.398 42.7393 97.398 27.5772 82.2359C12.4152 67.0739 12.4152 42.4914 27.5772 27.3294C42.7393 12.1674 67.3218 12.1674 82.4838 27.3294C97.6458 42.4914 97.6458 67.0739 82.4838 82.2359Z" fill="black"/>
<path d="M207.671 207.423C192.509 222.585 167.926 222.585 152.764 207.423C137.602 192.261 137.602 167.678 152.764 152.516C167.926 137.354 192.509 137.354 207.671 152.516C222.833 167.678 222.833 192.261 207.671 207.423Z" fill="black"/>
<path fill-rule="evenodd" clip-rule="evenodd" d="M141.289 178.625L164.171 201.507L202.605 163.072L180.808 141.276C158.572 141.11 136.388 132.544 119.422 115.578C102.456 98.6126 93.8903 76.4277 93.7246 54.1919L71.9277 32.3949L33.4931 70.8295L56.3748 93.7112C77.893 94.3905 99.2088 102.942 115.633 119.367C132.058 135.791 140.61 157.107 141.289 178.625Z" fill="black"/>
<ellipse cx="54.6038" cy="180.396" rx="38.8248" ry="38.8248" fill="black"/>
<ellipse cx="180.396" cy="54.6038" rx="38.8248" ry="38.8248" fill="black"/>
</svg>
